# xmcd
#
# Track frame offsets: 
#        151
#        8098
#        32371
#        51608
#        70985
#        91573
#        113740
#        144939
#        166437
#        184120
#        199930
#        217224
#
# Disc length: 3121 seconds
#
# Revision: 0
# Processed by: cddbd v1.5PL3 Copyright (c) Steve Scherf et al.
# Submitted via: ExactAudioCopy v0.95a3
#
DISCID=a50c2f0c
DTITLE=Radiohead - You Can Shout - Live At Chiba Marine Stadium August
DTITLE=3Th 2003 - Disk 1
DYEAR=2003
DGENRE=Rock
TTITLE0=Intro
TTITLE1=There There
TTITLE2=2+2=5
TTITLE3=Morning Bell
TTITLE4=Exit Music
TTITLE5=National Anthem
TTITLE6=Backdrifts
TTITLE7=Sit Down,Stand Up
TTITLE8=No Surprises
TTITLE9=Bones
TTITLE10=Kid A
TTITLE11=Go To Sleep
EXTD=
EXTT0=
EXTT1=
EXTT2=
EXTT3=
EXTT4=
EXTT5=
EXTT6=
EXTT7=
EXTT8=
EXTT9=
EXTT10=
EXTT11=
PLAYORDER=
